<svg width="176" height="38" viewBox="0 0 176 38" fill="none" xmlns="http://www.w3.org/2000/svg">
<path d="M6.03993 37.3601H-6.82771e-05V10.1601H6.03993V37.3601ZM21.0799 19.3601C21.0799 21.4934 20.6533 23.2934 19.7999 24.7601C18.9733 26.2267 17.8933 27.3334 16.5599 28.0801C15.2533 28.8267 13.8399 29.2001 12.3199 29.2001C10.7199 29.2001 9.33327 28.8001 8.15993 28.0001C7.01327 27.1734 6.13327 26.0267 5.51993 24.5601C4.9066 23.0667 4.59993 21.3334 4.59993 19.3601C4.59993 17.3601 4.9066 15.6267 5.51993 14.1601C6.13327 12.6934 7.01327 11.5601 8.15993 10.7601C9.33327 9.93339 10.7199 9.52006 12.3199 9.52006C13.8399 9.52006 15.2533 9.89339 16.5599 10.6401C17.8933 11.3867 18.9733 12.4934 19.7999 13.9601C20.6533 15.4001 21.0799 17.2001 21.0799 19.3601ZM14.7199 19.3601C14.7199 18.4001 14.5199 17.5867 14.1199 16.9201C13.7199 16.2534 13.1866 15.7467 12.5199 15.4001C11.8533 15.0534 11.1199 14.8801 10.3199 14.8801C9.6266 14.8801 8.9466 15.0534 8.27993 15.4001C7.63993 15.7201 7.1066 16.2134 6.67993 16.8801C6.25327 17.5467 6.03993 18.3734 6.03993 19.3601C6.03993 20.3467 6.25327 21.1734 6.67993 21.8401C7.1066 22.5067 7.63993 23.0134 8.27993 23.3601C8.9466 23.6801 9.6266 23.8401 10.3199 23.8401C11.1199 23.8401 11.8533 23.6667 12.5199 23.3201C13.1866 22.9734 13.7199 22.4667 14.1199 21.8001C14.5199 21.1334 14.7199 20.3201 14.7199 19.3601ZM24.3674 3.24006C24.3674 2.28006 24.7141 1.50672 25.4074 0.920057C26.1008 0.306723 26.9274 5.67436e-05 27.8874 5.67436e-05C28.8741 5.67436e-05 29.7008 0.306723 30.3674 0.920057C31.0608 1.50672 31.4074 2.28006 31.4074 3.24006C31.4074 4.20006 31.0608 4.98673 30.3674 5.60006C29.7008 6.21339 28.8741 6.52006 27.8874 6.52006C26.9274 6.52006 26.1008 6.21339 25.4074 5.60006C24.7141 4.98673 24.3674 4.20006 24.3674 3.24006ZM24.9674 10.1601H30.8074V28.5601H24.9674V10.1601ZM40.8621 19.3601C40.8621 20.3467 41.0755 21.2001 41.5021 21.9201C41.9288 22.6134 42.5155 23.1601 43.2621 23.5601C44.0355 23.9601 44.8621 24.1601 45.7421 24.1601C46.4888 24.1601 47.1955 24.0534 47.8621 23.8401C48.5555 23.6001 49.1821 23.2801 49.7421 22.8801C50.3288 22.4801 50.8088 21.9867 51.1821 21.4001V27.2801C50.5421 27.7867 49.7421 28.2001 48.7821 28.5201C47.8221 28.8134 46.6488 28.9601 45.2621 28.9601C43.2355 28.9601 41.4088 28.5601 39.7821 27.7601C38.1821 26.9601 36.9155 25.8401 35.9821 24.4001C35.0755 22.9601 34.6221 21.2801 34.6221 19.3601C34.6221 17.4134 35.0755 15.7334 35.9821 14.3201C36.9155 12.8801 38.1821 11.7601 39.7821 10.9601C41.4088 10.1601 43.2355 9.76006 45.2621 9.76006C46.6488 9.76006 47.8221 9.92006 48.7821 10.2401C49.7421 10.5334 50.5421 10.9067 51.1821 11.3601V17.2801C50.8088 16.6934 50.3155 16.2001 49.7021 15.8001C49.1155 15.4001 48.4755 15.0934 47.7821 14.8801C47.0888 14.6667 46.4088 14.5601 45.7421 14.5601C44.8621 14.5601 44.0355 14.7734 43.2621 15.2001C42.5155 15.6267 41.9288 16.2001 41.5021 16.9201C41.0755 17.6401 40.8621 18.4534 40.8621 19.3601ZM54.4677 19.3601C54.4677 17.4134 54.9211 15.7201 55.8277 14.2801C56.7344 12.8401 57.9877 11.7201 59.5877 10.9201C61.1877 10.1201 62.9877 9.72006 64.9877 9.72006C66.9877 9.72006 68.7744 10.1201 70.3477 10.9201C71.9477 11.7201 73.2011 12.8401 74.1077 14.2801C75.0411 15.7201 75.5077 17.4134 75.5077 19.3601C75.5077 21.2801 75.0411 22.9601 74.1077 24.4001C73.2011 25.8401 71.9477 26.9601 70.3477 27.7601C68.7744 28.5601 66.9877 28.9601 64.9877 28.9601C62.9877 28.9601 61.1877 28.5601 59.5877 27.7601C57.9877 26.9601 56.7344 25.8401 55.8277 24.4001C54.9211 22.9601 54.4677 21.2801 54.4677 19.3601ZM60.6677 19.3601C60.6677 20.3201 60.8677 21.1467 61.2677 21.8401C61.6677 22.5067 62.1877 23.0267 62.8277 23.4001C63.4677 23.7734 64.1877 23.9601 64.9877 23.9601C65.7611 23.9601 66.4677 23.7734 67.1077 23.4001C67.7744 23.0267 68.2944 22.5067 68.6677 21.8401C69.0677 21.1467 69.2677 20.3201 69.2677 19.3601C69.2677 18.4001 69.0677 17.5734 68.6677 16.8801C68.2944 16.1867 67.7744 15.6534 67.1077 15.2801C66.4677 14.9067 65.7611 14.7201 64.9877 14.7201C64.1877 14.7201 63.4677 14.9067 62.8277 15.2801C62.1877 15.6534 61.6677 16.1867 61.2677 16.8801C60.8677 17.5734 60.6677 18.4001 60.6677 19.3601ZM76.0756 10.1601H82.5156L86.7556 20.3601L90.9556 10.1601H97.3956L86.7556 30.7201L76.0756 10.1601ZM108.423 28.9601C106.29 28.9601 104.437 28.5734 102.863 27.8001C101.317 27.0001 100.117 25.8801 99.2634 24.4401C98.41 23.0001 97.9834 21.3067 97.9834 19.3601C97.9834 17.3867 98.3967 15.6801 99.2234 14.2401C100.05 12.8001 101.237 11.6934 102.783 10.9201C104.357 10.1467 106.21 9.76006 108.343 9.76006C110.477 9.76006 112.277 10.1334 113.743 10.8801C115.21 11.6001 116.33 12.6534 117.103 14.0401C117.877 15.4267 118.263 17.1067 118.263 19.0801C118.263 19.3734 118.263 19.6667 118.263 19.9601C118.263 20.2267 118.237 20.4534 118.183 20.6401H101.383V17.2801H112.743L111.303 19.1201C111.437 18.9334 111.543 18.7067 111.623 18.4401C111.73 18.1467 111.783 17.9067 111.783 17.7201C111.783 16.9201 111.637 16.2267 111.343 15.6401C111.05 15.0534 110.637 14.6001 110.103 14.2801C109.57 13.9601 108.943 13.8001 108.223 13.8001C107.317 13.8001 106.557 14.0001 105.943 14.4001C105.33 14.8001 104.863 15.4134 104.543 16.2401C104.25 17.0401 104.09 18.0534 104.063 19.2801C104.063 20.4001 104.223 21.3601 104.543 22.1601C104.863 22.9601 105.343 23.5734 105.983 24.0001C106.623 24.4001 107.41 24.6001 108.343 24.6001C109.41 24.6001 110.317 24.4001 111.063 24.0001C111.837 23.6001 112.45 23.0001 112.903 22.2001L118.303 23.5201C117.343 25.3334 116.037 26.6934 114.383 27.6001C112.757 28.5067 110.77 28.9601 108.423 28.9601ZM127.953 10.1601V28.5601H121.993V10.1601H127.953ZM133.273 16.4001C132.953 16.0801 132.606 15.8267 132.233 15.6401C131.886 15.4534 131.446 15.3601 130.913 15.3601C130.326 15.3601 129.806 15.5201 129.353 15.8401C128.9 16.1601 128.553 16.6267 128.313 17.2401C128.073 17.8534 127.953 18.6001 127.953 19.4801L126.513 17.3601C126.513 15.8934 126.793 14.5867 127.353 13.4401C127.94 12.2934 128.7 11.3867 129.633 10.7201C130.566 10.0534 131.54 9.72006 132.553 9.72006C133.22 9.72006 133.86 9.85339 134.473 10.1201C135.086 10.3867 135.553 10.7601 135.873 11.2401L133.273 16.4001Z" fill="black"/>
<path d="M139.438 21.8801C140.372 22.6534 141.212 23.2667 141.958 23.7201C142.732 24.1467 143.412 24.4534 143.998 24.6401C144.585 24.8001 145.092 24.8801 145.518 24.8801C146.132 24.8801 146.585 24.7467 146.878 24.4801C147.172 24.2134 147.318 23.8667 147.318 23.4401C147.318 23.0401 147.198 22.7067 146.958 22.4401C146.718 22.1467 146.305 21.8667 145.718 21.6001C145.158 21.3334 144.385 21.0534 143.398 20.7601C142.518 20.4401 141.678 20.0667 140.878 19.6401C140.105 19.1867 139.465 18.5867 138.958 17.8401C138.452 17.0934 138.198 16.1334 138.198 14.9601C138.198 13.8401 138.492 12.8934 139.078 12.1201C139.692 11.3467 140.505 10.7601 141.518 10.3601C142.558 9.96006 143.745 9.76006 145.078 9.76006C146.145 9.76006 147.132 9.88006 148.038 10.1201C148.972 10.3601 149.838 10.6801 150.638 11.0801C151.465 11.4801 152.238 11.9467 152.958 12.4801L150.798 16.4001C150.025 15.6801 149.145 15.0934 148.158 14.6401C147.172 14.1601 146.265 13.9201 145.438 13.9201C144.878 13.9201 144.452 14.0267 144.158 14.2401C143.892 14.4534 143.758 14.7334 143.758 15.0801C143.758 15.4801 143.918 15.8134 144.238 16.0801C144.585 16.3467 145.065 16.6001 145.678 16.8401C146.318 17.0534 147.092 17.3334 147.998 17.6801C148.958 18.0267 149.838 18.4267 150.638 18.8801C151.465 19.3334 152.118 19.9067 152.598 20.6001C153.105 21.2934 153.358 22.2134 153.358 23.3601C153.358 25.3334 152.745 26.8267 151.518 27.8401C150.318 28.8267 148.625 29.3201 146.438 29.3201C145.105 29.3201 143.865 29.1601 142.718 28.8401C141.598 28.5467 140.558 28.1467 139.598 27.6401C138.638 27.1067 137.745 26.5201 136.918 25.8801L139.438 21.8801ZM166.041 28.9601C163.907 28.9601 162.054 28.5734 160.481 27.8001C158.934 27.0001 157.734 25.8801 156.881 24.4401C156.027 23.0001 155.601 21.3067 155.601 19.3601C155.601 17.3867 156.014 15.6801 156.841 14.2401C157.667 12.8001 158.854 11.6934 160.401 10.9201C161.974 10.1467 163.827 9.76006 165.961 9.76006C168.094 9.76006 169.894 10.1334 171.361 10.8801C172.827 11.6001 173.947 12.6534 174.721 14.0401C175.494 15.4267 175.881 17.1067 175.881 19.0801C175.881 19.3734 175.881 19.6667 175.881 19.9601C175.881 20.2267 175.854 20.4534 175.801 20.6401H159.001V17.2801H170.361L168.921 19.1201C169.054 18.9334 169.161 18.7067 169.241 18.4401C169.347 18.1467 169.401 17.9067 169.401 17.7201C169.401 16.9201 169.254 16.2267 168.961 15.6401C168.667 15.0534 168.254 14.6001 167.721 14.2801C167.187 13.9601 166.561 13.8001 165.841 13.8001C164.934 13.8001 164.174 14.0001 163.561 14.4001C162.947 14.8001 162.481 15.4134 162.161 16.2401C161.867 17.0401 161.707 18.0534 161.681 19.2801C161.681 20.4001 161.841 21.3601 162.161 22.1601C162.481 22.9601 162.961 23.5734 163.601 24.0001C164.241 24.4001 165.027 24.6001 165.961 24.6001C167.027 24.6001 167.934 24.4001 168.681 24.0001C169.454 23.6001 170.067 23.0001 170.521 22.2001L175.921 23.5201C174.961 25.3334 173.654 26.6934 172.001 27.6001C170.374 28.5067 168.387 28.9601 166.041 28.9601Z" fill="#6A58A9"/>
</svg>
