<svg width="187" height="38" viewBox="0 0 187 38" fill="none" xmlns="http://www.w3.org/2000/svg">
<path d="M6.03993 37.3601H-6.82771e-05V10.1601H6.03993V37.3601ZM21.0799 19.3601C21.0799 21.4934 20.6533 23.2934 19.7999 24.7601C18.9733 26.2267 17.8933 27.3334 16.5599 28.0801C15.2533 28.8267 13.8399 29.2001 12.3199 29.2001C10.7199 29.2001 9.33327 28.8001 8.15993 28.0001C7.01327 27.1734 6.13327 26.0267 5.51993 24.5601C4.9066 23.0667 4.59993 21.3334 4.59993 19.3601C4.59993 17.3601 4.9066 15.6267 5.51993 14.1601C6.13327 12.6934 7.01327 11.5601 8.15993 10.7601C9.33327 9.93339 10.7199 9.52006 12.3199 9.52006C13.8399 9.52006 15.2533 9.89339 16.5599 10.6401C17.8933 11.3867 18.9733 12.4934 19.7999 13.9601C20.6533 15.4001 21.0799 17.2001 21.0799 19.3601ZM14.7199 19.3601C14.7199 18.4001 14.5199 17.5867 14.1199 16.9201C13.7199 16.2534 13.1866 15.7467 12.5199 15.4001C11.8533 15.0534 11.1199 14.8801 10.3199 14.8801C9.6266 14.8801 8.9466 15.0534 8.27993 15.4001C7.63993 15.7201 7.1066 16.2134 6.67993 16.8801C6.25327 17.5467 6.03993 18.3734 6.03993 19.3601C6.03993 20.3467 6.25327 21.1734 6.67993 21.8401C7.1066 22.5067 7.63993 23.0134 8.27993 23.3601C8.9466 23.6801 9.6266 23.8401 10.3199 23.8401C11.1199 23.8401 11.8533 23.6667 12.5199 23.3201C13.1866 22.9734 13.7199 22.4667 14.1199 21.8001C14.5199 21.1334 14.7199 20.3201 14.7199 19.3601ZM24.3674 3.24006C24.3674 2.28006 24.7141 1.50672 25.4074 0.920057C26.1008 0.306723 26.9274 5.67436e-05 27.8874 5.67436e-05C28.8741 5.67436e-05 29.7008 0.306723 30.3674 0.920057C31.0608 1.50672 31.4074 2.28006 31.4074 3.24006C31.4074 4.20006 31.0608 4.98673 30.3674 5.60006C29.7008 6.21339 28.8741 6.52006 27.8874 6.52006C26.9274 6.52006 26.1008 6.21339 25.4074 5.60006C24.7141 4.98673 24.3674 4.20006 24.3674 3.24006ZM24.9674 10.1601H30.8074V28.5601H24.9674V10.1601ZM40.8621 19.3601C40.8621 20.3467 41.0755 21.2001 41.5021 21.9201C41.9288 22.6134 42.5155 23.1601 43.2621 23.5601C44.0355 23.9601 44.8621 24.1601 45.7421 24.1601C46.4888 24.1601 47.1955 24.0534 47.8621 23.8401C48.5555 23.6001 49.1821 23.2801 49.7421 22.8801C50.3288 22.4801 50.8088 21.9867 51.1821 21.4001V27.2801C50.5421 27.7867 49.7421 28.2001 48.7821 28.5201C47.8221 28.8134 46.6488 28.9601 45.2621 28.9601C43.2355 28.9601 41.4088 28.5601 39.7821 27.7601C38.1821 26.9601 36.9155 25.8401 35.9821 24.4001C35.0755 22.9601 34.6221 21.2801 34.6221 19.3601C34.6221 17.4134 35.0755 15.7334 35.9821 14.3201C36.9155 12.8801 38.1821 11.7601 39.7821 10.9601C41.4088 10.1601 43.2355 9.76006 45.2621 9.76006C46.6488 9.76006 47.8221 9.92006 48.7821 10.2401C49.7421 10.5334 50.5421 10.9067 51.1821 11.3601V17.2801C50.8088 16.6934 50.3155 16.2001 49.7021 15.8001C49.1155 15.4001 48.4755 15.0934 47.7821 14.8801C47.0888 14.6667 46.4088 14.5601 45.7421 14.5601C44.8621 14.5601 44.0355 14.7734 43.2621 15.2001C42.5155 15.6267 41.9288 16.2001 41.5021 16.9201C41.0755 17.6401 40.8621 18.4534 40.8621 19.3601ZM54.4677 19.3601C54.4677 17.4134 54.9211 15.7201 55.8277 14.2801C56.7344 12.8401 57.9877 11.7201 59.5877 10.9201C61.1877 10.1201 62.9877 9.72006 64.9877 9.72006C66.9877 9.72006 68.7744 10.1201 70.3477 10.9201C71.9477 11.7201 73.2011 12.8401 74.1077 14.2801C75.0411 15.7201 75.5077 17.4134 75.5077 19.3601C75.5077 21.2801 75.0411 22.9601 74.1077 24.4001C73.2011 25.8401 71.9477 26.9601 70.3477 27.7601C68.7744 28.5601 66.9877 28.9601 64.9877 28.9601C62.9877 28.9601 61.1877 28.5601 59.5877 27.7601C57.9877 26.9601 56.7344 25.8401 55.8277 24.4001C54.9211 22.9601 54.4677 21.2801 54.4677 19.3601ZM60.6677 19.3601C60.6677 20.3201 60.8677 21.1467 61.2677 21.8401C61.6677 22.5067 62.1877 23.0267 62.8277 23.4001C63.4677 23.7734 64.1877 23.9601 64.9877 23.9601C65.7611 23.9601 66.4677 23.7734 67.1077 23.4001C67.7744 23.0267 68.2944 22.5067 68.6677 21.8401C69.0677 21.1467 69.2677 20.3201 69.2677 19.3601C69.2677 18.4001 69.0677 17.5734 68.6677 16.8801C68.2944 16.1867 67.7744 15.6534 67.1077 15.2801C66.4677 14.9067 65.7611 14.7201 64.9877 14.7201C64.1877 14.7201 63.4677 14.9067 62.8277 15.2801C62.1877 15.6534 61.6677 16.1867 61.2677 16.8801C60.8677 17.5734 60.6677 18.4001 60.6677 19.3601ZM76.0756 10.1601H82.5156L86.7556 20.3601L90.9556 10.1601H97.3956L86.7556 30.7201L76.0756 10.1601ZM108.423 28.9601C106.29 28.9601 104.437 28.5734 102.863 27.8001C101.317 27.0001 100.117 25.8801 99.2634 24.4401C98.41 23.0001 97.9834 21.3067 97.9834 19.3601C97.9834 17.3867 98.3967 15.6801 99.2234 14.2401C100.05 12.8001 101.237 11.6934 102.783 10.9201C104.357 10.1467 106.21 9.76006 108.343 9.76006C110.477 9.76006 112.277 10.1334 113.743 10.8801C115.21 11.6001 116.33 12.6534 117.103 14.0401C117.877 15.4267 118.263 17.1067 118.263 19.0801C118.263 19.3734 118.263 19.6667 118.263 19.9601C118.263 20.2267 118.237 20.4534 118.183 20.6401H101.383V17.2801H112.743L111.303 19.1201C111.437 18.9334 111.543 18.7067 111.623 18.4401C111.73 18.1467 111.783 17.9067 111.783 17.7201C111.783 16.9201 111.637 16.2267 111.343 15.6401C111.05 15.0534 110.637 14.6001 110.103 14.2801C109.57 13.9601 108.943 13.8001 108.223 13.8001C107.317 13.8001 106.557 14.0001 105.943 14.4001C105.33 14.8001 104.863 15.4134 104.543 16.2401C104.25 17.0401 104.09 18.0534 104.063 19.2801C104.063 20.4001 104.223 21.3601 104.543 22.1601C104.863 22.9601 105.343 23.5734 105.983 24.0001C106.623 24.4001 107.41 24.6001 108.343 24.6001C109.41 24.6001 110.317 24.4001 111.063 24.0001C111.837 23.6001 112.45 23.0001 112.903 22.2001L118.303 23.5201C117.343 25.3334 116.037 26.6934 114.383 27.6001C112.757 28.5067 110.77 28.9601 108.423 28.9601ZM127.953 10.1601V28.5601H121.993V10.1601H127.953ZM133.273 16.4001C132.953 16.0801 132.606 15.8267 132.233 15.6401C131.886 15.4534 131.446 15.3601 130.913 15.3601C130.326 15.3601 129.806 15.5201 129.353 15.8401C128.9 16.1601 128.553 16.6267 128.313 17.2401C128.073 17.8534 127.953 18.6001 127.953 19.4801L126.513 17.3601C126.513 15.8934 126.793 14.5867 127.353 13.4401C127.94 12.2934 128.7 11.3867 129.633 10.7201C130.566 10.0534 131.54 9.72006 132.553 9.72006C133.22 9.72006 133.86 9.85339 134.473 10.1201C135.086 10.3867 135.553 10.7601 135.873 11.2401L133.273 16.4001Z" fill="#F3EEF8"/>
<path d="M136.376 25.8401C136.376 24.8267 136.736 23.9601 137.456 23.2401C138.176 22.5201 139.069 22.1601 140.136 22.1601C141.256 22.1601 142.162 22.5201 142.856 23.2401C143.549 23.9601 143.896 24.8267 143.896 25.8401C143.896 26.8534 143.549 27.7201 142.856 28.4401C142.162 29.1601 141.256 29.5201 140.136 29.5201C139.069 29.5201 138.176 29.1601 137.456 28.4401C136.736 27.7201 136.376 26.8534 136.376 25.8401ZM149.946 21.8801C150.88 22.6534 151.72 23.2667 152.466 23.7201C153.24 24.1467 153.92 24.4534 154.506 24.6401C155.093 24.8001 155.6 24.8801 156.026 24.8801C156.64 24.8801 157.093 24.7467 157.386 24.4801C157.68 24.2134 157.826 23.8667 157.826 23.4401C157.826 23.0401 157.706 22.7067 157.466 22.4401C157.226 22.1467 156.813 21.8667 156.226 21.6001C155.666 21.3334 154.893 21.0534 153.906 20.7601C153.026 20.4401 152.186 20.0667 151.386 19.6401C150.613 19.1867 149.973 18.5867 149.466 17.8401C148.96 17.0934 148.706 16.1334 148.706 14.9601C148.706 13.8401 149 12.8934 149.586 12.1201C150.2 11.3467 151.013 10.7601 152.026 10.3601C153.066 9.96006 154.253 9.76006 155.586 9.76006C156.653 9.76006 157.64 9.88006 158.546 10.1201C159.48 10.3601 160.346 10.6801 161.146 11.0801C161.973 11.4801 162.746 11.9467 163.466 12.4801L161.306 16.4001C160.533 15.6801 159.653 15.0934 158.666 14.6401C157.68 14.1601 156.773 13.9201 155.946 13.9201C155.386 13.9201 154.96 14.0267 154.666 14.2401C154.4 14.4534 154.266 14.7334 154.266 15.0801C154.266 15.4801 154.426 15.8134 154.746 16.0801C155.093 16.3467 155.573 16.6001 156.186 16.8401C156.826 17.0534 157.6 17.3334 158.506 17.6801C159.466 18.0267 160.346 18.4267 161.146 18.8801C161.973 19.3334 162.626 19.9067 163.106 20.6001C163.613 21.2934 163.866 22.2134 163.866 23.3601C163.866 25.3334 163.253 26.8267 162.026 27.8401C160.826 28.8267 159.133 29.3201 156.946 29.3201C155.613 29.3201 154.373 29.1601 153.226 28.8401C152.106 28.5467 151.066 28.1467 150.106 27.6401C149.146 27.1067 148.253 26.5201 147.426 25.8801L149.946 21.8801ZM176.548 28.9601C174.415 28.9601 172.562 28.5734 170.988 27.8001C169.442 27.0001 168.242 25.8801 167.388 24.4401C166.535 23.0001 166.108 21.3067 166.108 19.3601C166.108 17.3867 166.522 15.6801 167.348 14.2401C168.175 12.8001 169.362 11.6934 170.908 10.9201C172.482 10.1467 174.335 9.76006 176.468 9.76006C178.602 9.76006 180.402 10.1334 181.868 10.8801C183.335 11.6001 184.455 12.6534 185.228 14.0401C186.002 15.4267 186.388 17.1067 186.388 19.0801C186.388 19.3734 186.388 19.6667 186.388 19.9601C186.388 20.2267 186.362 20.4534 186.308 20.6401H169.508V17.2801H180.868L179.428 19.1201C179.562 18.9334 179.668 18.7067 179.748 18.4401C179.855 18.1467 179.908 17.9067 179.908 17.7201C179.908 16.9201 179.762 16.2267 179.468 15.6401C179.175 15.0534 178.762 14.6001 178.228 14.2801C177.695 13.9601 177.068 13.8001 176.348 13.8001C175.442 13.8001 174.682 14.0001 174.068 14.4001C173.455 14.8001 172.988 15.4134 172.668 16.2401C172.375 17.0401 172.215 18.0534 172.188 19.2801C172.188 20.4001 172.348 21.3601 172.668 22.1601C172.988 22.9601 173.468 23.5734 174.108 24.0001C174.748 24.4001 175.535 24.6001 176.468 24.6001C177.535 24.6001 178.442 24.4001 179.188 24.0001C179.962 23.6001 180.575 23.0001 181.028 22.2001L186.428 23.5201C185.468 25.3334 184.162 26.6934 182.508 27.6001C180.882 28.5067 178.895 28.9601 176.548 28.9601Z" fill="#6A58A9"/>
</svg>
